# xmcd
#
# Track frame offsets: 
#        150
#        9352
#        19219
#        29344
#        40269
#        55726
#        65794
#        79603
#        88548
#        99560
#        113638
#
# Disc length: 1704 seconds
#
# Revision: 0
# Processed by: cddbd v1.5.2PL0 Copyright (c) Steve Scherf et al.
# Submitted via: ExactAudioCopy v0.99pb5
#
DISCID=8006a60b
DTITLE=Ian Fleming - Flatpicker
DYEAR=1900
DGENRE=Bluegrass
TTITLE0=Goodbye Liza Jane
TTITLE1=Roanoke
TTITLE2=Lonesome Fiddle Blues
TTITLE3=Lady Be Good
TTITLE4=Dawgola
TTITLE5=Red Haired Boy
TTITLE6=Engagement Waltz
TTITLE7=The Goldrush
TTITLE8=Plastic Banana
TTITLE9=Old Dangerfield
TTITLE10=Angeline the Baker - Whiskey before Breakfast
EXTD=
EXTT0=
EXTT1=
EXTT2=
EXTT3=
EXTT4=
EXTT5=
EXTT6=
EXTT7=
EXTT8=
EXTT9=
EXTT10=
PLAYORDER=
